<?xml version="1.0" encoding="utf-8"?>
<!-- Generator: Adobe Illustrator 27.5.0, SVG Export Plug-In . SVG Version: 6.00 Build 0)  -->
<svg version="1.1" xmlns="http://www.w3.org/2000/svg" xmlns:xlink="http://www.w3.org/1999/xlink" x="0px" y="0px"
	 viewBox="0 0 500 500" style="enable-background:new 0 0 500 500;" xml:space="preserve">
<g id="BACKGROUND">
</g>
<g id="OBJECTS">
	<g>
		<path style="fill:#365241;" d="M168.982,183.06c0,0-3.445-15.513,10.941-25.645c14.386-10.131,9.442-14.027,20.144-18.291
			c10.701-4.264,18.57,5.798,4.423,15.248c-14.148,9.45-18.588,9.122-17.736,13.703C187.605,172.657,168.982,183.06,168.982,183.06z
			"/>
		<path style="fill:#365241;" d="M132.93,169.649c0,0-4.37-17.009-8.002-18.127c-3.632-1.119-13.803-0.029-20.705-10.563
			c-6.902-10.534-14.995-1.353-31.109-4.128c-16.114-2.774-33.913,0.429-32.46,5.729c1.453,5.3,22.521,13.163,35.235,10.14
			c12.714-3.023,13.077,5.895,22.885,8.156C108.581,163.117,132.93,169.649,132.93,169.649z"/>
		<path style="fill:#365241;" d="M147.329,203.19c0,0-17.648-16.084-23.276-15.604c-5.628,0.48-0.161,5.802-8.129,4.207
			c-7.968-1.595-29.063-7.522-29.98,2.616c-0.917,10.138-18.543,9.539-16.176,17.239c2.367,7.7,14.506,12.282,19.983,5.384
			c5.477-6.899,11.186-11.504,14.526-8.37c3.339,3.133,8.533,3.438,14.791-1.108C125.325,203.009,143.971,199.993,147.329,203.19z"
			/>
		<path style="fill:#365241;" d="M152.247,146.194c0,0-9.93-3-12.459-9.163c-2.528-6.163,4.475-6.267-5.094-9.668
			c-9.568-3.401-16.21-7.401-16.825-10.889c-0.615-3.488-14.479-8.898-22.788-10.444c-8.308-1.546-2.23-21.124,23.32-11.213
			c25.55,9.911,24.253,14.455,26.981,14.743c2.727,0.287,6.362,0.264,6.528,7.002C152.077,123.299,163.507,128.299,152.247,146.194z
			"/>
		<path style="fill:none;stroke:#6BB074;stroke-width:0.5;stroke-miterlimit:10;" d="M159.543,240.36
			c0,0,1.846-40.238-26.255-43.635"/>
		<g>
			<path style="fill:#D9D5D1;" d="M128.677,326.355c0,3.956,12.933,7.163,28.886,7.163s28.886-3.207,28.886-7.163
				c0-3.956-12.933-7.163-28.886-7.163S128.677,322.399,128.677,326.355z"/>
			<g>
				<path style="fill:#593119;" d="M186.895,275.702c0,0,0.219,26.673-7.359,47.645c0,3.624-9.837,6.562-21.972,6.562
					c-12.135,0-21.972-2.938-21.972-6.562c0,0-7.359-17.645-7.359-47.645H186.895z"/>
				<ellipse style="fill:#915531;" cx="157.563" cy="275.702" rx="29.331" ry="7.189"/>
				<path style="fill:#593119;" d="M184.002,278.818c-4.737-2.41-14.796-4.072-26.439-4.072c-11.643,0-21.702,1.663-26.439,4.072
					c-1.854-0.943-2.892-2-2.892-3.117c0-3.97,13.132-7.189,29.331-7.189s29.331,3.218,29.331,7.189
					C186.895,276.818,185.856,277.875,184.002,278.818z"/>
				<g>
					<path style="fill:none;stroke:#6BB074;stroke-width:0.5;stroke-miterlimit:10;" d="M156.492,276.074
						c0,0-6.267-73.575,50.854-81.403"/>
					<path style="fill:none;stroke:#6BB074;stroke-width:0.5;stroke-miterlimit:10;" d="M159.423,242.611
						c0,0,8.201-71.561-66.34-97.013"/>
				</g>
			</g>
		</g>
		<path style="fill:none;stroke:#6BB074;stroke-width:0.5;stroke-miterlimit:10;" d="M155.227,206.868
			c0,0,7.005-74.894-20.536-95.496"/>
		<path style="fill:#365241;" d="M174.338,211.768c0,0,2.542-15.687,19.657-19.773c17.115-4.087,13.964-9.535,25.483-9.535
			c11.519,0,15.105,12.26-1.536,15.801s-20.645,1.593-21.549,6.165C195.489,208.997,174.338,211.768,174.338,211.768z"/>
		<path style="fill:none;stroke:#6BB074;stroke-width:0.5;stroke-miterlimit:10;" d="M158.471,220.923
			c0,0,5.253-49.51,32.972-65.378"/>
	</g>
	<g>
		<ellipse style="fill:#F0ECE7;" cx="342.948" cy="141.047" rx="44.337" ry="31.624"/>
		<path style="fill:#F0ECE7;" d="M317.944,165.985c0,0-8.266,7.919-14.906,6.52l7.774-17.997L317.944,165.985z"/>
	</g>
	<g>
		<g>
			<path style="fill:#D9D5D1;" d="M430.716,336.652l13.558-6.193l-102.943-29.163l-121.472,44.692
				c-45.712,9.869-82.614,18.623-82.614,18.623l179.685,38.643c22.721-8.889,155.098-54.9,155.098-54.9L430.716,336.652z"/>
			<path style="fill:#D9D5D1;" d="M304.788,399.93l-144.297,37.245c-0.448-22.488,1.052-75.123,51.728-76.133
				S304.34,377.442,304.788,399.93z"/>
			
				<ellipse transform="matrix(0.4116 -0.9113 0.9113 0.4116 -207.5127 548.9858)" style="fill:#D9D5D1;" cx="321.421" cy="435.207" rx="7.289" ry="27.515"/>
			<g>
				<g>
					<polygon style="fill:#974F89;" points="161.691,368.247 316.929,403.255 415.166,350.315 350.051,340.779 305.848,363.789 
						201.276,344.986 269.143,320.101 249.284,315.025 157.676,346.16 					"/>
					<polygon style="fill:#974F89;" points="305.848,363.789 272.642,357.818 162.92,365.975 318.578,401.759 415.166,350.315 
						359.633,343.228 338.555,346.763 					"/>
					<polygon style="fill:#974F89;" points="316.929,403.255 316.857,404.696 161.918,369.712 161.698,368.247 					"/>
					<polygon style="fill:#974F89;" points="316.857,404.696 415.043,352.116 415.133,350.314 316.929,403.255 					"/>
					<polygon style="fill:#BDBDBD;" points="165.497,366.391 316.454,399.266 407.538,350.997 273.998,305.96 					"/>
					<path style="fill:#FFFFFF;" d="M165.497,366.391l148.957,29.429l90.833-47.465l0,0c-0.837-1.823-1.513-3.717-2.019-5.658
						l-0.116-0.444L165.497,366.391z"/>
					<polygon style="fill:#974F89;" points="168.976,364.57 164.656,345.135 159.445,347.364 162.975,367.601 165.497,366.391 					
						"/>
					<polygon style="fill:#BDBDBD;" points="313.503,393.144 165.497,366.391 162.136,345.872 318.012,374.297 					"/>
					<path style="fill:#BDBDBD;" d="M162.136,345.872c0,0,10.356,9.444,3.361,20.519L162.136,345.872z"/>
					<path style="fill:#DEDEDE;" d="M314.454,395.82c0,0,0.595,2.579,2,3.446l91.084-48.269l-2.251-2.642L314.454,395.82z"/>
					<path style="fill:#DEDEDE;" d="M404.619,346.808c0,0-0.541-1.489-0.54-1.421l-42.889,20.504l42.175-22.832
						c-2.097-6.567,1.018-10.155,1.018-10.155l-88.176,42.862c0,0-7.712,8.925-2.705,17.38l0,0"/>
					<path style="fill:#CC76BB;" d="M318.214,377.509l88.554-46.156L273.55,305.955L157.676,346.16L318.214,377.509z"/>
					<polygon style="fill:#974F89;" points="157.676,346.16 158.064,348.053 318.123,379.323 318.214,377.509 					"/>
					<polygon style="fill:#974F89;" points="318.123,379.323 318.214,377.509 406.767,331.354 406.68,333.104 					"/>
				</g>
				<polygon style="fill:#974F89;" points="326.902,367.083 379.154,326.089 273.55,305.955 157.676,346.159 238.086,361.862 				
					"/>
				<g>
					<g>
						<polygon style="fill:#3C5947;" points="326.493,357.197 145.47,340.495 201.361,304.869 385.964,320.214 385.664,322.375 
													"/>
						<path style="fill:#3C5947;" d="M326.493,357.197L145.47,340.495l-1.259-24.617l184.303,14.414l-2.552,9.515
							C324.379,345.71,325.747,351.154,326.493,357.197L326.493,357.197z"/>
						<polygon style="fill:#6BB074;" points="389.873,293.224 219.548,281.603 144.212,315.878 328.514,330.293 						"/>
						<path style="fill:#DEDEDE;" d="M385.442,305.031l-15.101,7.786L385.809,303c0.67-2.497,1.88-5.758,3.094-7.604l-60.77,37.653
							l-1.199,20.973l57.273-34.406C384.206,319.615,384.033,312.234,385.442,305.031z"/>
						<polygon style="fill:#3C5947;" points="389.873,293.224 389.416,296.517 328.133,333.049 328.514,330.293 						"/>
						<polygon style="fill:#3C5947;" points="385.664,322.375 385.964,320.214 326.933,354.022 326.493,357.197 						"/>
						<path style="fill:#BDBDBD;" d="M328.133,333.049l-1.199,20.973C326.933,354.022,329.735,345.187,328.133,333.049z"/>
						<polygon style="fill:#FFFFFF;" points="385.809,303 385.442,305.031 352.358,322.177 						"/>
					</g>
				</g>
				<ellipse style="fill:#466953;" cx="252.36" cy="304.11" rx="59.452" ry="11.769"/>
				<path style="fill:#466953;" d="M345.15,319.882c-0.947,3.109-13.552,2.024-28.155-2.423
					c-14.603-4.447-25.673-10.572-24.726-13.681c0.947-3.109,13.552-2.024,28.155,2.423
					C335.026,310.647,346.097,316.773,345.15,319.882z"/>
			</g>
			<g>
				<g>
					<path style="fill:#C77B4E;" d="M299.603,419.435c0,0,14.387-23.621,15.828-15.38c0.678,3.879,13.563,29.066,26.821,35.543
						c0,0,2.355,7.296-19.108-1.111C301.68,430.078,295.434,426.373,299.603,419.435z"/>
					<path style="fill:#C77B4E;" d="M300.452,418.075l2.868-11.772c0,0,6.352-6.943,11.017-3.911L300.452,418.075z"/>
					<path style="fill:#25294D;" d="M345.903,447.742c-21.079,0.894-38.649-15.462-38.649-15.462
						c-10.451-2.69-11.821-5.906-7.652-12.844c0,0,0.12-0.197,0.333-0.54h0c0.05,0.055,0.101,0.109,0.151,0.163
						c3.462,3.738,9.711,2.111,10.99-2.82c0.919-3.545,2.115-6.964,3.522-8.335c0.723-0.704,1.502-0.809,2.282-0.57
						c0,0,0,0.001,0,0.001c0.269,0.498,0.566,1.025,0.902,1.599c0.031,0.052,0.065,0.109,0.096,0.162
						c0.308,0.523,0.625,1.054,0.983,1.628c5.261,8.5,15.707,22.294,25.106,27.922c1.815,1.087,3.402,2.554,4.385,4.428
						C349.882,445.991,348.935,447.613,345.903,447.742z"/>
					<path style="fill:#FFFFFF;" d="M307.255,432.279c0,0,17.57,16.357,38.649,15.462c3.032-0.129,3.979-1.751,2.449-4.669
						c-0.982-1.873-2.57-3.341-4.385-4.428c-1.475-0.883-2.976-1.985-4.479-3.219c-4.545,2.111-7.227,6.53-7.227,6.53
						c-12.154-3.436-26.801-13.936-26.801-13.936c-1.444-3.559-3.908-6.479-5.929-8.46
						C295.457,426.409,296.869,429.606,307.255,432.279z"/>
					<g>
						<g>
							<path style="fill:#FFFFFF;" d="M323.388,417.132c-2.836-0.563-3.352,1.046-5.154,3.023c0.152-0.324,0.337-0.629,0.507-0.948
								C320.029,417.123,321.059,415.814,323.388,417.132L323.388,417.132z"/>
							<path style="fill:#FFFFFF;" d="M324.931,419.365c-3.216-0.462-3.215,1.388-5.482,3.52
								C321.038,420.076,321.845,417.921,324.931,419.365L324.931,419.365z"/>
							<path style="fill:#FFFFFF;" d="M326.708,421.734c-3.216-0.462-3.02,1.635-5.287,3.768
								C323.009,422.694,323.622,420.291,326.708,421.734L326.708,421.734z"/>
						</g>
						<path style="fill:#FFFFFF;" d="M314.943,418.059c1.714,0.049,3.246-0.977,4.25-2.237l0.162,0.295
							c-2.232,0.136-5.178,0.252-6.611-1.865c-0.576-1.134-0.564-2.94,0.742-3.546c1.294-0.382,2.481,0.461,3.499,1.066
							c1.308,0.869,2.477,1.877,3.581,2.978l-0.644,0.224c0.228-0.986,0.787-8.471,2.465-6.863c0.678,1.34,0.213,2.548,0.036,3.867
							c-0.254,1.217-0.568,2.411-0.965,3.585l-0.075-0.186c0.26,0.123,0.658,0.127,1.001,0.071c1.093-0.186,2.063-0.79,2.969-1.418
							c-1.141,0.907-2.563,2.046-4.123,1.625c0,0-0.112-0.043-0.112-0.043c0.313-1.231,0.615-2.474,0.816-3.724
							c0.195-1.005,0.309-2.703-0.005-3.367c-0.662,1.769-1.01,4.419-1.255,6.539l-0.086,0.757l-0.559-0.533
							c-1.123-0.971-5.773-5.646-6.821-3.305c-0.999,3.466,3.659,3.93,6.11,3.774c0,0,0.446-0.019,0.446-0.019
							C318.585,417.138,316.831,418.293,314.943,418.059L314.943,418.059z"/>
					</g>
				</g>
				<g>
					<path style="fill:#C77B4E;" d="M318.126,307.361c0,0,7.475-21.755,11.078-15.217c1.696,3.077,17.692,18.256,30.758,19.883
						c0,0,4.101,5.476-16.45,4.596C322.962,315.743,316.617,314.425,318.126,307.361z"/>
					<path style="fill:#C77B4E;" d="M318.557,306.157l-1.71-13.866c0,0,10.403-9.175,11.649-1.045L318.557,306.157z"/>
					<path style="fill:#25294D;" d="M365.403,317.842c-17.532,6.86-37.099-1.857-37.099-1.857c-9.6,0.757-11.688-1.561-10.178-8.625
						c0,0,0.044-0.201,0.125-0.552h0c0.058,0.032,0.116,0.063,0.174,0.094c4.005,2.152,8.808-1.031,8.459-5.563
						c-0.251-3.259-0.232-6.49,0.558-8.055c0.406-0.804,1.034-1.117,1.761-1.142c0,0,0,0.001,0,0.001
						c0.371,0.342,0.775,0.701,1.224,1.088c0.041,0.035,0.086,0.073,0.128,0.109c0.412,0.352,0.833,0.708,1.301,1.09
						c6.902,5.651,19.715,14.268,29.278,16.295c1.846,0.392,3.612,1.171,4.983,2.467
						C368.255,315.212,367.925,316.856,365.403,317.842z"/>
					<path style="fill:#FFFFFF;" d="M328.305,315.986c0,0,19.567,8.717,37.099,1.857c2.522-0.987,2.851-2.63,0.715-4.65
						c-1.372-1.297-3.137-2.076-4.983-2.467c-1.501-0.318-3.087-0.814-4.713-1.419c-3.225,3.099-4.208,7.605-4.208,7.605
						c-11.254,0.62-26.657-4-26.657-4c-2.25-2.586-5.175-4.336-7.454-5.423C316.647,314.448,318.765,316.737,328.305,315.986z"/>
					<g>
						<g>
							<path style="fill:#FFFFFF;" d="M339.65,298.658c-3.237-0.075-5.338,2.501-7.001,4.925c0.114-0.371,0.266-0.728,0.401-1.097
								C334.125,300.043,336.846,297.69,339.65,298.658L339.65,298.658z"/>
							<path style="fill:#FFFFFF;" d="M342.948,300.984c-3.641,0.102-6.339,2.59-8.489,5.264
								C335.742,302.983,339.284,300.023,342.948,300.984L342.948,300.984z"/>
							<path style="fill:#FFFFFF;" d="M345.575,303.393c-3.641,0.102-6.339,2.59-8.489,5.264
								C338.37,305.392,341.912,302.432,345.575,303.393L345.575,303.393z"/>
						</g>
						<path style="fill:#FFFFFF;" d="M330.311,301.536c1.516-0.203,2.718-1.327,3.422-2.58l0.185,0.237
							c-1.946,0.44-4.524,0.966-6.09-0.693c-0.67-0.916-0.919-2.508,0.144-3.229c1.085-0.522,2.251,0.049,3.234,0.437
							c1.277,0.578,2.451,1.297,3.581,2.108l-0.535,0.289c0.059-0.901-0.523-7.574,1.185-6.398c0.79,1.082,0.554,2.214,0.587,3.4
							c-0.049,1.108-0.154,2.205-0.335,3.296l-0.093-0.153c0.247,0.071,0.598,0.018,0.892-0.081
							c0.936-0.321,1.704-0.992,2.411-1.675c-0.874,0.963-1.963,2.17-3.398,2.024c0,0-0.105-0.022-0.105-0.022
							c0.099-1.13,0.186-2.267,0.184-3.397c0.028-0.913-0.116-2.425-0.488-2.965c-0.329,1.653-0.255,4.037-0.166,5.939
							c0,0,0.033,0.678,0.033,0.678l-0.569-0.389c-1.128-0.694-5.896-4.143-6.482-1.931c-0.382,3.196,3.787,2.936,5.923,2.446
							c0,0,0.39-0.081,0.39-0.081C333.386,300.202,332.008,301.471,330.311,301.536L330.311,301.536z"/>
					</g>
				</g>
				<path style="fill:#424B87;" d="M227.495,248.408c0,0,85.505-65.703,101.938-49.578c5.433,5.331,0.129,91.346,0.129,91.346
					l-13.582,6.292c0,0-11.243-46.831-4.983-62.422l-37.041,48.129L227.495,248.408z"/>
				<path style="fill:#424B87;" d="M260.443,243.9c0,0,5.257,20.417,4.588,27.786l-42.339-20.997L260.443,243.9z"/>
				<path style="fill:#25294D;" d="M286.421,257.794c-1.006,0.693-2.085,1.292-3.22,1.807c-5.394,2.45-11.779,0.432-14.98-4.553
					l-5.567-8.673c4.841,9.07,7.469,16.394,8.173,18.64c-12.233-3.814-28.255-8.205-28.255-8.205l31.384,25.365l37.041-48.129
					l3.121-8.548C314.118,225.498,295.987,251.205,286.421,257.794z"/>
				<path style="fill:#424B87;" d="M204.988,245.001c0,0-21.783,40.678-6.849,54.21c14.934,13.532,102.514,14.066,102.514,14.066
					l1.483,95.862h17.054c0,0,12.719-111.335,10.372-118.964c-2.348-7.63-93.704-35.44-93.704-35.44L204.988,245.001z"/>
				<path style="fill:#C77B4E;" d="M267.093,186.539l1.101,26.309c0,0-4.101,5.513-11.078,5.133l-11.371-33.129L267.093,186.539z"/>
				<path style="fill:#C77B4E;" d="M276.704,219.91c0,0-15.475,11.779-17.862,10.533c-2.387-1.246-1.873-7.775-1.873-7.775
					s-3.143-10.977,4.377-10.207c7.521,0.77,15.357,0.388,15.357,0.388V219.91z"/>
				<g>
					<path style="fill:#593119;" d="M200.53,109.062c0,0-4.598,21.602,9.351,16.262l3.733,1.438
						c0.367-0.31-17.308,13.53-14.439-17.228L200.53,109.062z"/>
					<path style="fill:#F7F7F7;" d="M253.492,154.258l-20.964-7.287l-27.004,0.538l-19.019,11.341
						c-5.981,4-7.216,12.694-7.027,21.928c0.101,4.903,0.63,9.788,1.444,14.624l2.185,12.991c0,0,16.451-4.374,32.081-6.306
						l-22.723-3.059l2.542,16.178l9.158,32.326c0,0,22.123,17.581,56.279-3.632l-2.257-32.935c0,0,12.205-3.286,6.845-19.079
						c0,0,5.48-3.652,13.912-8.727c0,0-12.39-10.672-17.753-21.299C260.15,159.799,255.648,155.083,253.492,154.258z"/>
					<path style="fill:#D6D3CE;" d="M217.256,200.581c-1.436-6.537-3.697-12.791-6.79-18.727
						C211.895,188.393,214.169,194.643,217.256,200.581L217.256,200.581z"/>
					<path style="fill:#D6D3CE;" d="M199.116,207.716c24.563,12.545,59.146,3.228,59.146,3.228l0.332,5.973
						c0,0-23.661,2.627-38.585-0.375C205.085,213.54,199.116,207.716,199.116,207.716z"/>
					<path style="fill:#C77B4E;" d="M205.524,147.509c0,0,3.904-0.702,5.034-5.773c0.979-4.393-0.536-12.396-3.431-22.022
						l21.553,3.578c0,0,0.218,22.438,3.849,23.68v0c4.301,8.977-1.672,11.763-15.58,7.115c-2.855-0.954-5.534-2.372-7.985-4.121
						L205.524,147.509z"/>
					<path style="fill:#915531;" d="M228.055,129.801c0,0-0.076,4.973,3.014,15.317c-15.156-0.63-20.403-13.976-20.403-13.976
						l-1.319-1.826c0,0-0.104-3.263-0.425-4.568L228.055,129.801z"/>
					<path style="fill:#C77B4E;" d="M244.307,105.548c0,0,11.606,30.529-8.216,38.813c-9.766,4.082-29.844-22.176-31.822-26.212
						c-1.977-4.036-5.895-16.87,1.883-21.092C213.931,92.834,234.948,85.702,244.307,105.548z"/>
					<g>
						<path style="fill:#593119;" d="M225.495,110.363c0,0,3.051-3.649,7.168-2.847c2.335,0.455,0.907,2.102-0.546,2.938
							C230.665,111.291,224.731,112.573,225.495,110.363z"/>
					</g>
					<path style="fill:none;stroke:#0A0604;stroke-miterlimit:10;" d="M184.846,99.966"/>
					<path style="fill:#D6D3CE;" d="M261.366,170.656c-1.146,1.965-2.083,4.004-2.917,6.088c0.987,2.611,1.987,5.217,3.099,7.778
						c1.066,2.492,2.21,4.953,3.483,7.364c-0.702-2.634-1.533-5.218-2.443-7.771c-0.896-2.558-1.897-5.076-2.914-7.587l0.004,0.435
						C260.374,174.911,260.966,172.819,261.366,170.656L261.366,170.656z"/>
					<g>
						<path style="fill:#593119;" d="M241.476,106.63c0,0,4.09-0.689,5.057,1.956c0.548,1.5-1.318,1.785-2.549,1.551
							C242.753,109.902,239.421,107.612,241.476,106.63z"/>
					</g>
					<path style="fill:#593119;" d="M242.162,101.755c0,0-2.669-4.497-7.545-6.456c-0.988-0.397-6.867,16.1-22.175,17.609
						l1.172,7.52l-9.391,2.654c0,0,0.651,1.174-1.398-0.946c-2.049-2.12-14.244-32.052,18.098-31.528
						C241.378,90.939,242.162,101.755,242.162,101.755z"/>
					<path style="fill:#C77B4E;" d="M204.855,126.987c2.403,3.209,6.311,4.342,8.73,2.531c2.419-1.811,2.432-5.881,0.03-9.09
						c-2.403-3.209-6.311-4.342-8.73-2.531C202.465,119.709,202.452,123.778,204.855,126.987z"/>
					<path style="fill:#915531;" d="M205.902,120.495c2.738,0.835,5.051,2.656,5.643,5.404c0,0,0.672-0.367,0.672-0.367
						c-1.131-0.872-2.287-1.717-3.54-2.455c1.175,1.395,2.547,2.635,3.889,3.863l-0.215-1.181
						C211.985,122.74,209.018,120.411,205.902,120.495L205.902,120.495z"/>
					<g>
						<g>
							<g>
								<path style="fill:#0A0604;" d="M236.498,116.377c-1.034,2.404-3.573,4.707-6.243,3.052
									c-0.771-0.406-1.458-0.934-2.053-1.547c0.727,0.446,1.454,0.875,2.22,1.187
									C232.968,120.386,235.035,118.292,236.498,116.377L236.498,116.377z"/>
							</g>
						</g>
						<g>
							<g>
								<path style="fill:#0A0604;" d="M241.664,115.515c0.968,0.995,2.882,3.387,4.201,1.77c0.33-0.48,0.521-1.088,0.766-1.663
									c-0.059,0.626-0.163,1.248-0.464,1.847C244.727,119.528,242.357,117.008,241.664,115.515L241.664,115.515z"/>
							</g>
						</g>
					</g>
					<path style="fill:#915531;" d="M242.055,115.363l3.775,6.72c0.511,2.057-2.243,3.175-2.243,3.175s-3.442-1.236-3.488-1.78
						c-0.296-3.493-0.946-9.587,0.598-9.301C241.528,114.332,242.055,115.363,242.055,115.363z"/>
					<path style="fill:#29160B;" d="M243.479,124.231c0.413,0.579-0.347-1.013-2.65-0.292"/>
					<path style="fill:#593119;" d="M229.088,126.072c0,0,4.051,2.659,9.762,3.23c0,0-4.089,4.371-7.852,2.54
						C227.799,130.285,229.088,126.072,229.088,126.072z"/>
					<path style="fill:#CC76BB;" d="M228.905,128.909c0.176,1.105,0.719,2.264,2.094,2.933c1.065,0.519,2.154,0.53,3.172,0.294
						C232.972,129.902,230.635,129.151,228.905,128.909z"/>
				</g>
				<polygon style="fill:#C77B4E;" points="213.27,201.829 216.79,217.446 201.921,246.142 188.717,206.945 				"/>
				<path style="fill:#915531;" d="M213.27,201.829l3.29,14.365l0,0c0,0-10.564,10.837-11.413,16.507c0,0,3.226-9.992,8.383-17.779
					l-4.434-12.224L213.27,201.829z"/>
				<path style="fill:#C77B4E;" d="M251.769,193.87c0,0,1.052-0.645-4.254-3.926c-1.195-0.739-2.734-0.602-3.784,0.332
					c-7.388,6.576-35.9,32.175-38.272,37.657c-3.896,9.006-4.627,14.632-3.539,18.209c0.268,0.88,1.216,1.457,2.243,1.39
					c3.91-0.256,13.133-3.559,22.313-12.509C240.225,221.62,251.769,193.87,251.769,193.87z"/>
				<path style="fill:#593119;" d="M195.011,98.05"/>
				<path style="fill:#593119;" d="M223.064,90.686c0,0,3.051-0.22,3.491-2.861c0.44-2.641-7.524,0.147-6.843,0
					c0.681-0.147,4.588,0.147,5.716-4.842c1.128-4.989-16.626-1.907-13.692,0c2.935,1.907,12.948-1.907,5.52-7.776
					s-24.704,3.228-18.396,7.63c6.307,4.402,0.991-10.417-11.48-2.348c-8.605,5.568-1.907,17.754,4.549,16.873
					c6.456-0.88,12.622-7.336,3.083-3.228c-9.539,4.108-7.921,16.174,0,12.415c7.921-3.759,2.056-5.079,0-1.851
					c-2.056,3.228,3.519,5.492,7.187,2.306L223.064,90.686z"/>
				<path style="fill:#CC76BB;" d="M223.064,90.686c0,0-18.396-3.177-24.179,16.715C198.885,107.401,207.541,91.64,223.064,90.686z"
					/>
			</g>
			<g>
				<path style="fill:#25294D;" d="M283.469,308.657c-19.237-0.874-63.778-1.193-85.329-9.446
					c14.934,13.532,102.514,14.066,102.514,14.066l-4.774-10.598C296.337,305.706,294.528,309.159,283.469,308.657z"/>
				<path style="fill:#25294D;" d="M295.88,302.679c-0.338-2.238-1.912-4.244-1.912-4.244L295.88,302.679z"/>
			</g>
			<g>
				<path style="fill:#C77B4E;" d="M247.515,189.945c0,0,18.241,5.476,18.548,6.376c0.307,0.9-13.89,7.639-17.14,7.994
					c-4.753,0.519-9.861-7.837-9.861-7.837L247.515,189.945z"/>
				<path style="fill:#C77B4E;" d="M258.182,195.085c0,0,11.017,0.722,11.555,1.574c0.538,0.852,8.433,6.06,8.086,6.457
					c-1.607,1.839-3.98,0.626-5.4-0.473c-4.593-3.558-17.156-3.707-17.156-3.707L258.182,195.085z"/>
				<path style="fill:#C77B4E;" d="M265.876,196.911c0,0,1.126,7.009-2.379,8.003c0,0-1.658,2.529-4.259,2.354
					c0,0-2.03,2.89-4.533,2.275c0,0-6.142,0.853-5.826-5.653L265.876,196.911z"/>
			</g>
			<g>
				<g>
					<path style="fill:#B5B3AE;" d="M307.405,205.065l-2.44-10.095c0,0-0.249-0.573-0.769-0.407
						c-0.314,0.1-27.385,9.974-30.997,11.292c-0.255,0.093-0.452,0.291-0.549,0.545l-3.34,8.794
						c-0.135,0.355-0.074,0.756,0.162,1.055l0.618,0.785c0.152,0.193,0.409,0.272,0.643,0.198l36.274-11.463
						C307.305,205.675,307.478,205.367,307.405,205.065z"/>
					<g>
						<path style="fill:#FDF9F3;" d="M270.505,215.294l35.035-11.733c0.337-0.113,0.538-0.459,0.468-0.808l-1.605-7.98
							c-0.027-0.134-0.167-0.213-0.296-0.166l-31.001,11.282c-0.193,0.07-0.345,0.221-0.418,0.412l-3.066,8.073
							C269.41,214.931,269.94,215.483,270.505,215.294z"/>
						<polygon style="fill:#25294D;" points="271.498,214.987 302.909,204.442 301.217,195.657 275.208,205.219 						"/>
					</g>
					<path style="fill:#B5B3AE;" d="M304.167,198.702c0.075,0.236-0.222,0.541-0.662,0.68s-0.857,0.06-0.932-0.176
						c-0.075-0.237,0.221-0.541,0.662-0.68S304.092,198.465,304.167,198.702z"/>
				</g>
				<g>
					<path style="fill:#C77B4E;" d="M279.027,219.642c0,0,16.592-7.529,17.086-8.252c0.494-0.723,0.611-11.743-1.4-12.417
						c-2.011-0.674-2.206,0.063-2.364,6.397c-0.158,6.334-0.987,4.247-0.987,4.247s-8.952,1.072-10.789,0.478
						c0,0-4.194,3.204-7.164,5.368c-1.454,1.06-1.557,2.767-0.255,3.955C274.657,220.79,275.86,221.258,279.027,219.642z"/>
					<path style="fill:#915531;" d="M291.362,209.618c0,0,0.829,2.087,0.987-4.247c0.107-4.283,0.233-6.002,0.923-6.461
						c-0.159,2.842-0.55,10.371-0.275,11.157l-1.818,0.618l-0.05-1.039C291.266,209.629,291.362,209.618,291.362,209.618z"/>
					<path style="fill:#C77B4E;" d="M287.596,213.68c0,0,1.852-6.73,1.683-8.555c-0.169-1.825-0.829-4.516-0.726-5.153
						c0.102-0.637,1.979-1.838,3.289,0.795c1.309,2.633,1.064,4.576,0.921,5.508c-0.143,0.932-1.472,5.107-1.472,5.107
						L287.596,213.68z"/>
					<path style="fill:#C77B4E;" d="M283.16,215.805c0,0,1.852-6.73,1.683-8.555c-0.169-1.825-0.828-4.516-0.726-5.153
						c0.103-0.637,1.979-1.838,3.289,0.795c1.309,2.633,1.064,4.576,0.921,5.508c-0.143,0.932-1.472,5.107-1.472,5.107
						L283.16,215.805z"/>
					<path style="fill:#C77B4E;" d="M278.076,218.6c0,0,2.813-6.699,2.497-8.504c-0.316-1.805-1.194-4.447-1.143-5.086
						c0.051-0.639,1.835-1.926,3.359,0.626c1.524,2.552,1.434,4.495,1.367,5.429c-0.068,0.934-1.063,5.15-1.063,5.15L278.076,218.6z
						"/>
				</g>
			</g>
			<path style="fill:#915531;" d="M268.059,209.628c0,0-5.569,3.784-6.067,7.637l6.202-4.417L268.059,209.628z"/>
		</g>
		<g>
			<g>
				<g>
					<polygon style="fill:#D6D3CE;" points="160.491,437.175 224.315,314.034 210.469,304.139 146.912,428.386 152.715,432.567 
						160.491,437.175 					"/>
					<polygon style="fill:#89B3D6;" points="73.024,395.582 132.751,281.386 210.469,304.139 146.912,428.386 					"/>
					<polygon style="fill:#6A89B8;" points="135.957,290.757 83.46,391.131 144.147,418.074 199.724,309.426 					"/>
					<polygon style="fill:#89B3D6;" points="135.409,294.134 85.521,389.52 143.192,415.124 196.007,311.875 					"/>
					<polygon style="fill:#3C5947;" points="73.024,395.582 75.12,396.503 148.666,429.156 146.912,428.386 					"/>
					<polygon style="fill:#D6D3CE;" points="73.202,395.734 79.572,400.439 160.256,437.204 148.431,429.185 					"/>
				</g>
				<path style="fill:#6A89B8;" d="M78.236,394.366l56.691-108.679C134.927,285.687,92.37,362.146,78.236,394.366z"/>
			</g>
			<polygon style="fill:#6A89B8;" points="146.912,428.386 149.331,429.871 213.031,305.97 210.469,304.139 			"/>
			<polygon style="fill:#6A89B8;" points="158.548,435.717 160.806,437.345 224.349,314.033 221.787,312.202 			"/>
			<path style="fill:#6A89B8;" d="M160.806,437.345l-81.318-36.771c0,0-5.578-3.567-6.464-4.992l6.353,4.541l79.171,35.594
				L160.806,437.345z"/>
			<path style="fill:#6A89B8;" d="M149.331,429.871l-75.586-33.858c0,0,5.313,4.152,5.944,4.652l-0.201-0.091
				c0,0-5.33-3.216-6.464-4.992l73.888,32.803L149.331,429.871z"/>
			<path style="fill:#F0ECE7;" d="M151.4,286.69c0,0-1.447-0.296-3.49,9.039c-2.043,9.336-6.071,13.289-6.588,13.348l-2.21-2.704
				l-4.879,0.628c0,0,4.191-4.727,5.152-8.06c1.985-6.882,4.315-13.379,4.96-14.287C144.713,284.136,151.4,286.69,151.4,286.69z"/>
		</g>
	</g>
</g>
<g id="TEXTS">
	<path id="SVGID_x5F_1_x5F_" style="fill:#F0ECE7;" d="M125.813,327.457l44.578,18.096"/>
	<text>	<textPath  xlink:href="#SVGID_x5F_1_x5F_" startOffset="0.195%">
<tspan  style="fill:#F0ECE7; font-family:'Montserrat-Regular'; font-size:12.0044px;">Glossary</tspan>	</textPath>
</text>
	<g>
		
			<text transform="matrix(0.9659 0 0 1 313.1043 146.7625)" style="fill:#424B87; font-family:'Montserrat-Light'; font-size:20.7191px;">A to Z</text>
	</g>
</g>
</svg>
